<svg xmlns="http://www.w3.org/2000/svg" width="488.238" height="488.482" viewBox="0 0 488.238 488.482"><path d="M185.089,246.119a24.412,24.412,0,1,1-24.412-24.412A24.484,24.484,0,0,1,185.089,246.119ZM288.84,197.3a24.412,24.412,0,1,0-24.412-24.412A24.484,24.484,0,0,0,288.84,197.3Zm-85.442,0a24.412,24.412,0,1,0-24.412-24.412A24.484,24.484,0,0,0,203.4,197.3Zm0,97.648a24.412,24.412,0,1,0,24.412,24.412A24.484,24.484,0,0,0,203.4,294.943Zm286.84-67.133v36.618a18.309,18.309,0,1,1-36.618,0H416.026a170.344,170.344,0,0,1-37.106,89.1l26.609,26.609.244-.244a18.3,18.3,0,1,1,25.877,25.877L405.773,431.65a18.3,18.3,0,0,1-26.121-25.633l-26.609-26.609a171.249,171.249,0,0,1-88.859,36.862v37.594h.244a18.309,18.309,0,1,1,0,36.618H227.81a18.31,18.31,0,0,1-.244-36.618V416.026a169.611,169.611,0,0,1-88.615-36.862l-26.609,26.609.244.244a18.3,18.3,0,0,1-25.877,25.877L60.589,405.773a18.3,18.3,0,0,1,25.632-26.121l26.609-26.609a168.18,168.18,0,0,1-36.618-88.615H38.618a18.442,18.442,0,0,1-18.309,18.309A18.442,18.442,0,0,1,2,264.428V227.81A18.442,18.442,0,0,1,20.309,209.5,18.442,18.442,0,0,1,38.618,227.81H76.212a172.183,172.183,0,0,1,36.618-88.615L86.221,112.586A18.3,18.3,0,0,1,60.589,86.465L86.465,60.589a18.3,18.3,0,1,1,25.877,25.877l-.244.244,26.609,26.609a170.449,170.449,0,0,1,88.615-36.862V38.618a18.392,18.392,0,0,1-18.065-18.309A18.818,18.818,0,0,1,227.81,2h36.618a18.442,18.442,0,0,1,18.309,18.309,18.442,18.442,0,0,1-18.309,18.309h-.244V76.212a169.26,169.26,0,0,1,88.859,36.862l26.609-26.609a18.124,18.124,0,0,1,.244-25.633,18.419,18.419,0,0,1,25.877,0L431.65,86.709a18.3,18.3,0,0,1-25.877,25.877l-.244-.244L378.92,138.707a171.5,171.5,0,0,1,37.106,89.1H453.62a18.309,18.309,0,0,1,36.618,0Zm-122.06,18.309a122.06,122.06,0,1,0-122.06,122.06A122.1,122.1,0,0,0,368.179,246.119Zm-122.06-24.412a24.412,24.412,0,1,0,24.412,24.412A24.484,24.484,0,0,0,246.119,221.707Zm85.442,0a24.412,24.412,0,1,0,24.412,24.412A24.484,24.484,0,0,0,331.561,221.707ZM288.84,294.943a24.412,24.412,0,1,0,24.412,24.412A24.484,24.484,0,0,0,288.84,294.943Z" transform="translate(-2 -2)" fill="#457b9d"/></svg>