<svg xmlns="http://www.w3.org/2000/svg" width="284.813" height="284.955" viewBox="0 0 284.813 284.955"><path d="M108.8,144.406a14.241,14.241,0,1,1-14.241-14.241A14.283,14.283,0,0,1,108.8,144.406Zm60.523-28.481a14.241,14.241,0,1,0-14.241-14.241A14.282,14.282,0,0,0,169.328,115.925Zm-49.842,0a14.241,14.241,0,1,0-14.241-14.241A14.283,14.283,0,0,0,119.485,115.925Zm0,56.963a14.241,14.241,0,1,0,14.241,14.241A14.283,14.283,0,0,0,119.485,172.888Zm167.328-39.162v21.361a10.68,10.68,0,1,1-21.361,0H243.521a99.37,99.37,0,0,1-21.646,51.978L237.4,222.588l.142-.142a10.674,10.674,0,0,1,15.1,15.1l-15.1,15.1A10.675,10.675,0,0,1,222.3,237.683L206.781,222.16a99.9,99.9,0,0,1-51.836,21.5v21.931h.142a10.68,10.68,0,1,1,0,21.361H133.726a10.681,10.681,0,0,1-.142-21.361V243.521a98.943,98.943,0,0,1-51.694-21.5L66.368,237.54l.142.142a10.674,10.674,0,1,1-15.1,15.1L36.178,237.54A10.675,10.675,0,0,1,51.13,222.3l15.522-15.522a98.108,98.108,0,0,1-21.361-51.694H23.361a10.758,10.758,0,0,1-10.68,10.68A10.758,10.758,0,0,1,2,155.087V133.726a10.758,10.758,0,0,1,10.68-10.68,10.758,10.758,0,0,1,10.68,10.68H45.292A100.443,100.443,0,0,1,66.653,82.032L51.13,66.51A10.675,10.675,0,0,1,36.178,51.273l15.1-15.1a10.674,10.674,0,0,1,15.1,15.1l-.142.142L81.748,66.937a99.431,99.431,0,0,1,51.694-21.5V23.361A10.729,10.729,0,0,1,122.9,12.68,10.978,10.978,0,0,1,133.726,2h21.361a10.758,10.758,0,0,1,10.68,10.68,10.758,10.758,0,0,1-10.68,10.68h-.142V45.292a98.738,98.738,0,0,1,51.836,21.5L222.3,51.273a10.573,10.573,0,0,1,.142-14.953,10.745,10.745,0,0,1,15.1,0l15.1,15.1a10.674,10.674,0,1,1-15.1,15.1l-.142-.142-15.522,15.38a100.042,100.042,0,0,1,21.646,51.978h21.931a10.68,10.68,0,1,1,21.361,0Zm-71.2,10.68a71.2,71.2,0,1,0-71.2,71.2A71.229,71.229,0,0,0,215.61,144.406Zm-71.2-14.241a14.241,14.241,0,1,0,14.241,14.241A14.283,14.283,0,0,0,144.406,130.166Zm49.842,0a14.241,14.241,0,1,0,14.241,14.241A14.283,14.283,0,0,0,194.249,130.166Zm-24.921,42.722a14.241,14.241,0,1,0,14.241,14.241A14.283,14.283,0,0,0,169.328,172.888Z" transform="translate(-2 -2)" fill="#e63946"/></svg>